<svg viewBox="0 0 40 40" xmlns="http://www.w3.org/2000/svg">
    <path d="m20.751 29.175 2.194 2.227 3.31 5.417.542 1.341-6.092-4.38s-.59-2.404-.594-4.967c-.003-2.564.64.362.64.362ZM10.553 18.729s-3.628 5.292-3.661 6.115c.59-.286 4.663-3.346 7.355-1.712l-3.694-4.403Z" fill="#376466" />
    <path d="M36.32 1.667s-15.323 8.585-15.532 25.377c0 0 4.41 5.49 6.009 11.117-.014-.046-.044-.04-.087-.13-.068-.14-.169-.406-.293-.659-.983-2.006-3.933-7.136-9.175-11.65-6.325-5.449-4.44-3.908-4.44-3.908S10.565 20.273 10 16.723c0 0-1.465-5.957-2.667-7.506-.054-.07-3.761-4.821-3.814-4.87.552.439 4.535 6.204 7.538 5.586.39-.021 3.461-.238 4.153 4.372.763-1.264 9.12-8.618 21.11-12.638Z" fill="#63b4b8" />
    <path d="m20.751 29.175 2.711 3.073.459.53.329.47.406.629.26.47.846 1.665 1.035 2.148-4.85-3.487-.704-2.626-.492-2.872Z" fill="#a8d5d7" />
    <path d="m26.785 38.135-.34-.704c.061.129.116.257.163.369.04.092.073.173.102.231.023.049.043.069.058.085a.18.18 0 0 1 .017.02Zm-.37-.766c-.679-1.386-2.294-4.257-4.952-7.386l1.999 2.265.458.53.33.47.406.629.259.47.847 1.666.654 1.356Z" fill="#63b4b8" />
</svg>